<svg width="24" height="24" viewBox="0 0 24 24" fill="none" xmlns="http://www.w3.org/2000/svg">
<path d="M11.999 7C14.759 7 16.999 9.24 16.999 12C16.999 12.65 16.869 13.26 16.639 13.83L19.559 16.75C21.069 15.49 22.259 13.86 22.989 12C21.259 7.61 16.989 4.5 11.989 4.5C10.589 4.5 9.24902 4.75 8.00902 5.2L10.169 7.36C10.739 7.13 11.349 7 11.999 7ZM1.99902 4.27L4.27902 6.55L4.73902 7.01C3.07902 8.3 1.77902 10.02 0.999023 12C2.72902 16.39 6.99902 19.5 11.999 19.5C13.549 19.5 15.029 19.2 16.379 18.66L16.799 19.08L19.729 22L20.999 20.73L3.26902 3L1.99902 4.27ZM7.52902 9.8L9.07902 11.35C9.02902 11.56 8.99902 11.78 8.99902 12C8.99902 13.66 10.339 15 11.999 15C12.219 15 12.439 14.97 12.649 14.92L14.199 16.47C13.529 16.8 12.789 17 11.999 17C9.23902 17 6.99902 14.76 6.99902 12C6.99902 11.21 7.19902 10.47 7.52902 9.8ZM11.839 9.02L14.989 12.17L15.009 12.01C15.009 10.35 13.669 9.01 12.009 9.01L11.839 9.02Z" fill="#0078F0" fill-opacity="0.44"/>
</svg>
